# xmcd
# 
# Track frame offsets:
#     150
#     54225
#     121125
#     139875
#     184575
# 
# Disc length: 3016
# 
# Revision: 20
# Processed by: cddbd v1.5.2PL0 Copyright (c) Steve Scherf et al.
# Submitted via: fre:ac v1.1.4
# 
DISCID=3c0bc605
DTITLE=Franz Schubert / CD2 Caspar da Salo Quartett (1797-1828) Death and the maiden
DYEAR=1988
DGENRE=Classical
TTITLE0=String Quartet N째 14 in D minor D.810 Death and the Maiden - 1 Allegro
TTITLE1=String Quartet N째 14 in D minor D.810 Death and the Maiden - 2 Andante con Moto
TTITLE2=String Quartet N째 14 in D minor D.810 Death and the Maiden - 3 Scherzo -  Allegro Molto
TTITLE3=String Quartet N째 14 in D minor D.810 Death and the Maiden - 4 Presto
TTITLE4=Quartettsatz - Movement for String Quartet No 12 in C minor D.703 Allegro assai
EXTD=
EXTT0=
EXTT1=
EXTT2=
EXTT3=
EXTT4=
PLAYORDER=
.
